<?xml version="1.0" encoding="UTF-8"?>
<svg xmlns="http://www.w3.org/2000/svg" xmlns:xlink="http://www.w3.org/1999/xlink" width="128pt" height="128pt" viewBox="0 0 128 128" version="1.1">
<g id="surface1">
<path style=" stroke:none;fill-rule:nonzero;fill:#464646;fill-opacity:1;" d="M 64 10.667969 C 34.917969 10.667969 10.667969 31.855469 10.667969 58.667969 C 10.667969 85.480469 34.917969 106.667969 64 106.667969 C 65.855469 106.667969 67.542969 106.292969 69.332031 106.125 L 69.332031 123.167969 L 77.5625 117.894531 C 89.082031 110.5 114.0625 91.292969 117.019531 63.707031 C 117.230469 62.0625 117.332031 60.394531 117.332031 58.667969 C 117.332031 31.855469 93.082031 10.667969 64 10.667969 Z M 64 21.332031 C 87.957031 21.332031 106.667969 38.355469 106.667969 58.667969 C 106.667969 59.957031 106.582031 61.230469 106.4375 62.519531 L 106.4375 62.542969 L 106.417969 62.5625 C 104.582031 79.625 90.917969 93.042969 80 101.769531 L 80 93.730469 L 73.605469 95 C 70.5 95.644531 67.292969 96 64 96 C 40.042969 96 21.332031 78.980469 21.332031 58.667969 C 21.332031 38.355469 40.042969 21.332031 64 21.332031 Z "/>
</g>
</svg>
