<?xml version="1.0" encoding="UTF-8"?>
<svg xmlns="http://www.w3.org/2000/svg" xmlns:xlink="http://www.w3.org/1999/xlink" width="128pt" height="128pt" viewBox="0 0 128 128" version="1.1">
<g id="surface1">
<path style=" stroke:none;fill-rule:nonzero;fill:#464646;fill-opacity:1;" d="M 26.667969 10.667969 C 17.894531 10.667969 10.667969 17.894531 10.667969 26.667969 L 10.667969 90.667969 C 10.667969 99.4375 17.894531 106.667969 26.667969 106.667969 L 117.332031 106.667969 L 117.332031 21.332031 L 42.667969 21.332031 L 42.667969 10.667969 Z M 26.667969 21.332031 L 32 21.332031 L 32 74.667969 L 26.667969 74.667969 C 24.605469 74.667969 23.167969 76.144531 21.332031 76.894531 L 21.332031 26.667969 C 21.332031 23.644531 23.644531 21.332031 26.667969 21.332031 Z M 42.667969 32 L 106.667969 32 L 106.667969 96 L 26.667969 96 C 23.644531 96 21.332031 93.6875 21.332031 90.667969 C 21.332031 87.644531 23.644531 85.332031 26.667969 85.332031 L 42.667969 85.332031 Z M 74.667969 48 L 81.5625 54.894531 L 74.667969 61.792969 L 64 51.125 L 49.5625 65.5625 L 57.105469 73.105469 L 64 66.207031 L 74.667969 76.875 L 89.105469 62.4375 L 96 69.332031 L 96 48 Z "/>
</g>
</svg>
